<?xml version="1.0" encoding="UTF-8"?>
<svg id="Layer_2" data-name="Layer 2" xmlns="http://www.w3.org/2000/svg" viewBox="0 0 440.004 82">
  <defs>
    <style>
      .cls-1 {
        fill: #f58b1f;
      }

      .cls-1, .cls-2, .cls-3, .cls-4, .cls-5 {
        stroke-width: 0px;
      }

      .cls-2 {
        fill: #268b43;
      }

      .cls-3 {
        fill: #a9a9a8;
      }

      .cls-4 {
        fill: #fff;
      }

      .cls-5 {
        fill: #4e69b0;
      }
    </style>
  </defs>
  <g id="Layer_1-2" data-name="Layer 1">
    <g>
      <g>
        <path id="path244" class="cls-2" d="M0,82L.027,16.584,27.343,5.692l-6.852,59.962L0,82Z"/>
        <path id="path246" class="cls-5" d="M35.5,59.71l6.85-54.511,17.066,10.91,3.392,54.515-27.308-10.914Z"/>
        <path id="path248" class="cls-1" d="M76.628,73.629l-6.806-54.517,30.729-8.165-3.436,54.512-20.487,8.169Z"/>
        <path id="path250" class="cls-3" d="M114.15,59.964L117.589,0l17.068,5.458-3.441,65.415-17.066-10.91Z"/>
      </g>
      <g>
        <polygon class="cls-4" points="171.609 47.979 160.889 21.459 149.388 21.459 149.388 60.541 159.103 60.541 159.103 38.153 167.644 60.541 175.572 60.541 184.115 38.153 184.115 60.541 193.83 60.541 193.83 21.459 182.328 21.459 171.609 47.979"/>
        <path class="cls-4" d="M210.968,21.459l-14.291,39.081h10.049l3.368-9.616,14.81-6.147,5.605,15.763h10.049l-14.181-39.081h-15.409ZM212.746,43.351l4.811-13.739h1.954l3.387,9.525-10.153,4.214Z"/>
        <path class="cls-4" d="M269.396,23.219c-2.142-1.174-4.83-1.76-8.067-1.76h-17.978v39.081h9.715v-13.567h8.263c2.493,0,4.651-.363,6.476-1.089,1.823-.726,3.321-1.702,4.493-2.93,1.174-1.229,2.048-2.605,2.626-4.132.576-1.525.864-3.07.864-4.633,0-2.271-.53-4.374-1.59-6.309-1.061-1.936-2.663-3.489-4.801-4.662ZM265.319,36.701c-.39.707-.968,1.239-1.729,1.591-.763.355-1.722.53-2.876.53h-7.648v-9.211h7.648c1.75,0,3.051.409,3.908,1.227.855.82,1.285,1.937,1.285,3.351,0,.968-.196,1.804-.588,2.511Z"/>
        <path class="cls-4" d="M304.932,23.219c-2.142-1.174-4.83-1.76-8.067-1.76h-17.978v39.081h9.715v-13.567h8.263c2.493,0,4.651-.363,6.476-1.089,1.823-.726,3.321-1.702,4.493-2.93,1.174-1.229,2.048-2.605,2.626-4.132.576-1.525.864-3.07.864-4.633,0-2.271-.53-4.374-1.59-6.309-1.061-1.936-2.663-3.489-4.801-4.662ZM300.855,36.701c-.39.707-.968,1.239-1.729,1.591-.763.355-1.723.53-2.876.53h-7.648v-9.211h7.648c1.75,0,3.051.409,3.909,1.227.855.82,1.285,1.937,1.285,3.351,0,.968-.196,1.804-.588,2.511Z"/>
        <polygon class="cls-4" points="314.421 60.541 343.731 60.541 343.731 52.39 324.136 52.39 324.136 44.518 338.763 44.518 338.763 36.925 324.136 36.925 324.136 29.612 343.731 29.612 343.731 21.459 314.421 21.459 314.421 60.541"/>
        <path class="cls-4" d="M370.983,45.885c1.823-.726,3.321-1.702,4.493-2.93,1.174-1.229,2.048-2.605,2.625-4.132.576-1.525.864-3.07.864-4.633,0-2.271-.53-4.374-1.59-6.309-1.062-1.936-2.663-3.489-4.801-4.662-2.142-1.174-4.83-1.76-8.068-1.76h-17.978v39.081h9.715v-13.567h4.938l7.791,13.567h10.719l-8.867-14.603c.051-.02.108-.033.159-.053ZM368.497,36.701c-.39.707-.968,1.239-1.729,1.591-.763.355-1.723.53-2.876.53h-7.648v-9.211h7.648c1.75,0,3.051.409,3.908,1.227.855.82,1.285,1.937,1.285,3.351,0,.968-.196,1.804-.588,2.511Z"/>
        <rect class="cls-4" x="383.595" y="41.854" width="9.715" height="18.687"/>
        <path class="cls-4" d="M429.955,60.541h10.049l-14.181-39.081h-15.409l-14.291,39.081h10.049l5.453-15.573,14.997,6.2,3.333,9.373ZM413.604,39.317l3.399-9.705h1.954l4.968,13.972-10.321-4.267Z"/>
        <path class="cls-4" d="M388.083,21.469c-3.71.192-6.66,3.262-6.66,7.02,0,1.586.525,3.049,1.411,4.225h0l4.757,6.393c.429.577,1.293.577,1.722,0l4.757-6.393h0c.812-1.078,1.321-2.398,1.4-3.832.229-4.16-3.227-7.628-7.388-7.412ZM388.373,32.714c-2.333,0-4.225-1.892-4.225-4.225s1.892-4.225,4.225-4.225,4.225,1.892,4.225,4.225-1.892,4.225-4.225,4.225Z"/>
      </g>
    </g>
  </g>
</svg>